<?xml version="1.0" encoding="UTF-8" standalone="no"?>
<svg width="17px" height="17px" viewBox="0 0 17 17" version="1.1" xmlns="http://www.w3.org/2000/svg" xmlns:xlink="http://www.w3.org/1999/xlink" xmlns:sketch="http://www.bohemiancoding.com/sketch/ns">
    <!-- Generator: Sketch Beta 3.3 (11970) - http://www.bohemiancoding.com/sketch -->
    <title>CopySelectionToNewFile</title>
    <desc>Created with Sketch Beta.</desc>
    <defs></defs>
    <g id="Page-1" stroke="none" stroke-width="1" fill="none" fill-rule="evenodd" sketch:type="MSPage">
        <g id="CopySelectionToNewFile" sketch:type="MSArtboardGroup" fill="#A5A7A7">
            <path d="M13,8.5 L13,16 L3,16 L3,3 L5,3 L5,4 L4,4 L4,15 L12,15 L12,14 L13,14 L13,8.5 Z" id="Rectangle-1" sketch:type="MSShapeGroup"></path>
            <path d="M12,1 L5,1 L5,14 L15,14 L15,4 L12,1 Z M6,6 L8,6 L8,7 L6,7 L6,6 Z M12,6 L14,6 L14,7 L12,7 L12,6 Z M6,12 L8,12 L8,13 L6,13 L6,12 Z M12,12 L14,12 L14,13 L12,13 L12,12 Z M6,11 L7,11 L7,12 L6,12 L6,11 Z M13,11 L14,11 L14,12 L13,12 L13,11 Z M13,7 L14,7 L14,8 L13,8 L13,7 Z M6,7 L7,7 L7,8 L6,8 L6,7 Z M11,1 L12,1 L12,5 L11,5 L11,1 Z M12,4 L15,4 L15,5 L12,5 L12,4 Z" id="Rectangle-2" sketch:type="MSShapeGroup"></path>
        </g>
    </g>
</svg>