<?xml version="1.0" encoding="utf-8"?>
<!-- Generator: Adobe Illustrator 18.1.0, SVG Export Plug-In . SVG Version: 6.00 Build 0)  -->
<svg version="1.1" id="Layer_1" xmlns="http://www.w3.org/2000/svg" xmlns:xlink="http://www.w3.org/1999/xlink" x="0px" y="0px"
	 viewBox="0 0 17 17" enable-background="new 0 0 17 17" xml:space="preserve">
<polygon fill="#A5A7A7" points="0,4 0,0 4,0 "/>
<polygon fill="#A5A7A7" points="4,17 0,17 0,13 "/>
<polygon fill="#A5A7A7" points="17,13 17,17 13,17 "/>
<polygon fill="#A5A7A7" points="13,0 17,0 17,4 "/>
<g>
	<g>
		<path fill="#A5A7A7" d="M9.5,4C11.4,4,13,5.6,13,7.5S11.4,11,9.5,11S6,9.4,6,7.5S7.6,4,9.5,4 M9.5,3C7,3,5,5,5,7.5S7,12,9.5,12
			S14,10,14,7.5S12,3,9.5,3L9.5,3z"/>
	</g>
	<g>
		<path fill="#A5A7A7" d="M5,13c-0.3,0-0.5-0.1-0.7-0.3c-0.4-0.4-0.4-1,0-1.4l2-2c0.7,1.2,0.2,0.9,1.4,1.4l-2,2
			C5.5,12.9,5.3,13,5,13z"/>
	</g>
</g>
<g>
</g>
<g>
</g>
<g>
</g>
<g>
</g>
<g>
</g>
<g>
</g>
<g>
</g>
<g>
</g>
<g>
</g>
<g>
</g>
<g>
</g>
<g>
</g>
<g>
</g>
<g>
</g>
<g>
</g>
</svg>
