<?xml version="1.0" encoding="UTF-8" standalone="no"?>
<svg width="17px" height="17px" viewBox="0 0 17 17" version="1.1" xmlns="http://www.w3.org/2000/svg" xmlns:xlink="http://www.w3.org/1999/xlink" xmlns:sketch="http://www.bohemiancoding.com/sketch/ns">
    <!-- Generator: Sketch 3.1.1 (8761) - http://www.bohemiancoding.com/sketch -->
    <title>fitToView</title>
    <desc>Created with Sketch.</desc>
    <defs></defs>
    <g id="Page-1" stroke="none" stroke-width="1" fill="none" fill-rule="evenodd" sketch:type="MSPage">
        <g id="fitToView" sketch:type="MSArtboardGroup" fill="#A5A7A7">
            <path d="M0,0 L6,0 L0,6 L0,0 Z" id="Fill-6" sketch:type="MSShapeGroup"></path>
            <path d="M17,17 L11,17 L17,11 L17,17 Z" id="Fill-8" sketch:type="MSShapeGroup"></path>
            <g id="Fill-10-+-Fill-11" sketch:type="MSLayerGroup" transform="translate(3.000000, 3.000000)">
                <path d="M6.05,1.1 C8.173,1.1 9.9,2.827 9.9,4.95 C9.9,7.073 8.173,8.8 6.05,8.8 C3.927,8.8 2.2,7.073 2.2,4.95 C2.2,2.827 3.927,1.1 6.05,1.1 M6.05,0 C3.3165,0 1.1,2.2165 1.1,4.95 C1.1,7.6835 3.3165,9.9 6.05,9.9 C8.7835,9.9 11,7.6835 11,4.95 C11,2.2165 8.7835,0 6.05,0" id="Fill-10" sketch:type="MSShapeGroup"></path>
                <path d="M1.1,11 C0.8184,11 0.5368,10.8922 0.3223,10.6777 C-0.1078,10.2476 -0.1078,9.5524 0.3223,9.1223 L2.5223,6.9223 C3.3055,8.2258 2.7434,7.8617 4.0777,8.4777 L1.8777,10.6777 C1.6632,10.8922 1.3816,11 1.1,11" id="Fill-11" sketch:type="MSShapeGroup"></path>
            </g>
        </g>
    </g>
</svg>