<?xml version="1.0" encoding="utf-8"?>
<!-- Generator: Adobe Illustrator 18.1.0, SVG Export Plug-In . SVG Version: 6.00 Build 0)  -->
<svg version="1.1" id="Layer_1" xmlns="http://www.w3.org/2000/svg" xmlns:xlink="http://www.w3.org/1999/xlink" x="0px" y="0px"
	 viewBox="0 0 31.4 16" enable-background="new 0 0 31.4 16" xml:space="preserve">
<path id="_x2E_svg" fill="#3F4041" d="M30.6,4.5c-1.8-2.9-4.1-4.4-7.1-4.4c-1.1,0-2.2,0.3-3.3,0.7c-0.9-0.6-3-1-4.5-0.7
	c-1.5,0.3-3.2,1.5-3.8,2.6C10.3,0.9,8.5,0,6.5,0C5,0,3.6,0.5,2.3,1.6V1c0-0.5-0.3-1-1.1-1C0.5,0,0.1,0.4,0,1.3v13.5
	c0,1,0.5,1.2,1.1,1.2h0c0.8,0,1.1-0.3,1.1-1V7.2c0-0.8,0.1-1.4,0.2-1.9c0.8-2,2.1-3,3.9-3h0.2C7.9,2.3,9,2.9,9.8,4
	c0.5,0.5,0.8,1.7,0.8,3.7V15c0,0.6,0.3,1,1.1,1h0.1c0.7,0,1.1-0.4,1.1-1.2V6.2c0-0.3,0.1-0.6,0.2-1.1c0.8-1.9,2.1-2.8,3.7-2.8h0.6
	l0.6,0.1c-1.6,1.5-2.4,3.4-2.4,5.6c0,1.3,0.3,2.6,1,3.9c1.5,2.2,3.2,3.5,5.3,3.9C22,15.9,23,16,23.3,16h0.5c2,0,3.8-0.8,5.5-2.4v0.1
	l-0.1,1.4v0.1c0,0.8,0.6,0.9,1.1,0.9h0.1c1,0,1.1-0.3,1.1-1V8.2C31.4,6.9,31.2,5.7,30.6,4.5z M29.2,8.2c0,0.8-0.2,1.7-0.7,2.6
	c-1.3,1.9-2.8,2.9-4.8,2.9h-0.2h-0.2c-0.6,0-1.2-0.1-2-0.4c-1.2-0.6-2-1.3-2.6-2.2c0,0,0,0,0,0c-0.1-0.2-0.3-0.4-0.4-0.7
	c0,0,0-0.1,0-0.1c-0.1-0.2-0.2-0.4-0.2-0.6c0-0.1,0-0.2-0.1-0.3c0-0.2-0.1-0.3-0.1-0.5c0-0.3-0.1-0.5-0.1-0.8V7.9
	c0-0.5,0.1-1.2,0.3-1.9c0.1-0.3,0.3-0.5,0.4-0.8c0.1-0.2,0.2-0.3,0.3-0.4C18.9,4.7,19,4.6,19,4.6c0.1-0.2,0.3-0.4,0.4-0.5
	c0,0,0,0,0,0c0.2-0.2,0.3-0.3,0.5-0.5c0,0,0,0,0,0l0,0c0.8-0.6,1.7-1,2.7-1.1c0.2,0,0.5,0,0.7,0h0.1c0.8,0,1.6,0.2,2.4,0.5
	c2.2,1.2,3.3,2.9,3.3,5.1V8.2z"/>
<g>
</g>
<g>
</g>
<g>
</g>
<g>
</g>
<g>
</g>
<g>
</g>
<g>
</g>
<g>
</g>
<g>
</g>
<g>
</g>
<g>
</g>
<g>
</g>
<g>
</g>
<g>
</g>
<g>
</g>
</svg>
