<?xml version="1.0" encoding="utf-8"?>
<!-- Generator: Adobe Illustrator 18.1.0, SVG Export Plug-In . SVG Version: 6.00 Build 0)  -->
<svg version="1.1" id="Layer_1" xmlns="http://www.w3.org/2000/svg" xmlns:xlink="http://www.w3.org/1999/xlink" x="0px" y="0px"
	 viewBox="124.5 534.1 32 16.3" enable-background="new 124.5 534.1 32 16.3" xml:space="preserve">
<path fill="#3F4041" d="M155.7,538.7c-1.8-3-4.2-4.5-7.3-4.5c-1.1,0-2.2,0.3-3.3,0.8c-1-0.6-3.1-1-4.6-0.7c-1.6,0.3-3.3,1.5-3.9,2.7
	c-1.6-1.9-3.4-2.8-5.4-2.8c-1.6,0-3,0.5-4.3,1.6v-0.6c0-0.5-0.3-1-1.1-1c-0.7,0-1.1,0.4-1.2,1.4v13.8c0,1,0.5,1.2,1.1,1.2h0
	c0.8,0,1.1-0.3,1.1-1.1v-7.9c0-0.8,0.1-1.4,0.2-1.9c0.8-2,2.1-3,4-3h0.2c1.4,0,2.5,0.6,3.3,1.7c0.5,0.5,0.8,1.8,0.8,3.8v7.3
	c0,0.6,0.3,1.1,1.1,1.1h0.1c0.8,0,1.1-0.4,1.1-1.2v-8.8c0-0.3,0.1-0.6,0.2-1.1c0.9-1.9,2.1-2.8,3.8-2.8h0.6l0.6,0.1
	c-1.6,1.6-2.5,3.4-2.5,5.7c0,1.3,0.3,2.7,1,4c1.5,2.2,3.3,3.6,5.4,4c0.2,0.1,1.2,0.2,1.5,0.2h0.5c2,0,3.9-0.8,5.6-2.5v0.1l-0.1,1.5
	v0.1c0,0.9,0.6,0.9,1.1,0.9h0.1c1,0,1.1-0.3,1.1-1.1v-6.9C156.5,541.2,156.3,539.9,155.7,538.7z M154.2,542.5c0,0.8-0.2,1.7-0.7,2.7
	c-1.3,2-2.9,2.9-4.9,2.9h-0.2h-0.2c-0.6,0-1.3-0.1-2-0.4c-1.2-0.6-2.1-1.4-2.7-2.3c0,0,0,0,0,0c-0.1-0.2-0.3-0.4-0.4-0.7
	c0,0,0-0.1,0-0.1c-0.1-0.2-0.2-0.4-0.2-0.6c0-0.1,0-0.2-0.1-0.3c0-0.2-0.1-0.3-0.1-0.5c0-0.3-0.1-0.6-0.1-0.9v-0.2
	c0-0.5,0.1-1.2,0.4-1.9c0.1-0.3,0.3-0.5,0.4-0.8c0.1-0.2,0.2-0.3,0.3-0.5c0.1-0.1,0.1-0.2,0.2-0.2c0.1-0.2,0.3-0.4,0.4-0.5
	c0,0,0,0,0,0c0.2-0.2,0.4-0.3,0.5-0.5l0,0l0,0c0.8-0.6,1.7-1,2.7-1.1c0.2,0,0.5,0,0.7,0h0.1c0.8,0,1.6,0.2,2.4,0.5
	c2.2,1.2,3.3,2.9,3.3,5.2L154.2,542.5L154.2,542.5z"/>
</svg>
