<?xml version="1.0" encoding="utf-8"?>
<!-- Generator: Adobe Illustrator 18.1.0, SVG Export Plug-In . SVG Version: 6.00 Build 0)  -->
<svg version="1.1" id="Layer_1" xmlns="http://www.w3.org/2000/svg" xmlns:xlink="http://www.w3.org/1999/xlink" x="0px" y="0px"
	 viewBox="0 0 164.5 83.7" enable-background="new 0 0 164.5 83.7" xml:space="preserve">
<path fill="#FFFFFF" d="M160.2,23.6c-9.2-15.4-21.6-23.1-37.3-23.1c-5.6,0-11.3,1.3-17.2,3.9c-5-2.9-15.8-5.2-23.8-3.5
	c-8,1.7-16.9,7.7-20.1,13.7C53.8,4.9,44.5,0,34,0C26,0,18.7,2.8,11.9,8.2V5.2c0-2.4-1.5-5.3-5.8-5.2C2.5,0,0.5,2.3,0,7v70.7
	c-0.2,5,2.7,6.1,5.8,6.1h0.2c4.1-0.1,5.6-1.3,5.8-5.5V37.6c0-4.1,0.3-7.3,0.9-9.8c3.9-10.4,10.8-15.6,20.5-15.6h0.9
	c7,0,12.8,2.9,17.1,8.8c2.8,2.6,4.2,9.1,4.2,19.6v37.6c0,3,1.6,5.4,5.8,5.5h0.3c3.9,0,5.6-1.9,5.7-6.1V32.4c0-1.5,0.3-3.3,0.9-5.5
	c4.4-9.8,10.9-14.6,19.3-14.6h3.1l3.1,0.4c-8.4,8-12.6,17.7-12.6,29.2c0,6.9,1.7,13.8,5.1,20.7c7.7,11.5,17,18.3,27.7,20.4
	c0.8,0.4,6.2,0.8,7.6,0.8h2.4c10.3,0,19.9-4.3,28.9-12.8v0.3l-0.3,7.6v0.3c0.2,4.4,3.2,4.5,5.8,4.5h0.3c5-0.1,5.7-1.6,5.8-5.4V43.1
	C164.5,36.4,163.1,29.9,160.2,23.6z M152.6,43.1c0,4.3-1.2,8.9-3.6,13.7c-6.6,10.1-14.9,15.1-25,15.1h-1.2h-1.2
	c-3,0-6.5-0.7-10.3-2.1c-6.1-3.1-10.7-7-13.8-11.6c0,0,0-0.1-0.1-0.1c-0.7-1.1-1.4-2.2-1.9-3.4c-0.1-0.2-0.2-0.4-0.2-0.6
	c-0.4-1-0.8-2.1-1.2-3.1c-0.1-0.5-0.2-1.1-0.3-1.6c-0.2-0.8-0.4-1.6-0.5-2.5c-0.2-1.4-0.3-2.9-0.3-4.4v-0.9c0-2.7,0.6-6,1.8-10
	c0.7-1.5,1.5-2.8,2.3-4.1c0.5-0.8,1.1-1.6,1.6-2.4c0.3-0.4,0.5-0.8,0.8-1.1c0.7-1,1.5-1.8,2.3-2.7c0.1-0.1,0.1-0.2,0.2-0.2
	c0.9-0.9,1.8-1.7,2.7-2.5c0,0,0,0,0,0l0,0c4.1-3.3,8.7-5.3,14.1-5.9c1.2-0.2,2.4-0.2,3.7-0.2h0.3c4.3,0,8.4,0.9,12.4,2.7
	c11.5,6.2,17.2,15.1,17.2,26.8V43.1z"/>
</svg>
