<?xml version="1.0" encoding="UTF-8" standalone="no"?>
<svg width="17px" height="17px" viewBox="0 0 17 17" version="1.1" xmlns="http://www.w3.org/2000/svg" xmlns:xlink="http://www.w3.org/1999/xlink" xmlns:sketch="http://www.bohemiancoding.com/sketch/ns">
    <!-- Generator: Sketch 3.1.1 (8761) - http://www.bohemiancoding.com/sketch -->
    <title>Measure</title>
    <desc>Created with Sketch.</desc>
    <defs></defs>
    <g id="Page-1" stroke="none" stroke-width="1" fill="none" fill-rule="evenodd" sketch:type="MSPage">
        <g id="Measure" sketch:type="MSArtboardGroup" fill="#A5A7A7">
            <path d="M12.0416667,0 L0,12.0416667 L4.95833333,17 L17,4.95833333 L12.0416667,0 L12.0416667,0 Z M1.4875,12.0416667 L2.45791667,11.07125 L3.73291667,12.3476667 L4.48375,11.5954167 L3.20875,10.319 L4.44125,9.08791667 L6.77875,11.4254167 L7.53029167,10.6731667 L5.19279167,8.336375 L6.38916667,7.14 L7.62875,8.37958333 L8.38029167,7.62804167 L7.14070833,6.38845833 L8.33708333,5.19208333 L10.6745833,7.52958333 L11.4254167,6.77875 L9.08791667,4.44125 L10.319,3.20945833 L11.5954167,4.48445833 L12.3476667,3.73291667 L11.07125,2.45791667 L12.0416667,1.4875 L15.5125,4.95833333 L4.95833333,15.5125 L1.4875,12.0416667 L1.4875,12.0416667 Z" id="Shape" sketch:type="MSShapeGroup"></path>
        </g>
    </g>
</svg>