<?xml version="1.0" encoding="UTF-8" standalone="no"?>
<svg width="17px" height="17px" viewBox="0 0 17 17" version="1.1" xmlns="http://www.w3.org/2000/svg" xmlns:xlink="http://www.w3.org/1999/xlink" xmlns:sketch="http://www.bohemiancoding.com/sketch/ns">
    <!-- Generator: Sketch 3.1.1 (8761) - http://www.bohemiancoding.com/sketch -->
    <title>moveToLayer</title>
    <desc>Created with Sketch.</desc>
    <defs></defs>
    <g id="Page-1" stroke="none" stroke-width="1" fill="none" fill-rule="evenodd" sketch:type="MSPage">
        <g id="moveToLayer" sketch:type="MSArtboardGroup" fill="#A5A7A7">
            <g id="Rectangle-1-+-Rectangle-1-+-Rectangle-2" sketch:type="MSLayerGroup" transform="translate(0.000000, 1.500000)">
                <path d="M0,4 L8.5,8 L17,4 L8.5,0 L0,4 L0,4 Z" id="Rectangle-1" sketch:type="MSShapeGroup"></path>
                <path d="M12.75,8 L17,10 L8.5,14 L-7.10542736e-15,10 L4.25,8 L5.3125,8.5 L2.125,10 L8.5,13 L14.875,10 L11.6875,8.5 L12.75,8 L12.75,8 Z" id="Rectangle-1" sketch:type="MSShapeGroup"></path>
                <path d="M7.10542736e-15,7 L8.5,11 L17,7 L8.5,3 L7.10542736e-15,7 Z M2.125,7 L8.5,10 L14.875,7 L8.5,4 L2.125,7 Z" id="Rectangle-2" sketch:type="MSShapeGroup"></path>
            </g>
        </g>
    </g>
</svg>