<?xml version="1.0" encoding="UTF-8" standalone="no"?>
<svg width="17px" height="17px" viewBox="0 0 17 17" version="1.1" xmlns="http://www.w3.org/2000/svg" xmlns:xlink="http://www.w3.org/1999/xlink" xmlns:sketch="http://www.bohemiancoding.com/sketch/ns">
    <!-- Generator: Sketch 3.5.1 (25234) - http://www.bohemiancoding.com/sketch -->
    <title>ProportionalScale</title>
    <desc>Created with Sketch.</desc>
    <defs></defs>
    <g id="Page-1" stroke="none" stroke-width="1" fill="none" fill-rule="evenodd" sketch:type="MSPage">
        <g id="ProportionalScale" sketch:type="MSArtboardGroup" fill="#A5A7A7">
            <path d="M0,0 L6,0 L0,6 L0,0 Z" id="Fill-6" sketch:type="MSShapeGroup"></path>
            <path d="M17,17 L11,17 L17,11 L17,17 Z" id="Fill-8" sketch:type="MSShapeGroup"></path>
            <path d="M7.46928056,9.79772638 C6.65659882,10.6315171 5.68858456,10.4868679 5.04699372,9.81654253 C4.69580715,9.4496276 4.52584185,9.01920815 4.52584185,8.499412 C4.52584185,7.98079185 4.69580715,7.5503724 5.04699372,7.18345747 C5.39705469,6.81771854 5.80902354,6.63896511 6.30653785,6.63896511 C6.72976269,6.63896511 7.43101022,6.97295178 8.40915486,8.50176401 C8.02645155,9.11916895 7.71128412,9.55311642 7.46928056,9.79772638 M13.437201,6.63896511 L14,6.63896511 L14,4 L13.437201,4 C12.1258794,4 10.9304943,4.71854175 9.87918582,6.1379851 C8.82450052,4.71854175 7.62686427,4 6.30653785,4 C5.11903199,4 4.09248663,4.44217954 3.25729294,5.31360251 C2.42322484,6.1873775 2,7.25989808 2,8.499412 C2,9.74127793 2.42322484,10.8126225 3.25729294,11.6840455 C4.09248663,12.5578205 5.11790639,13 6.30653785,13 C7.62686427,13 8.82450052,12.2814583 9.87918582,10.8620149 C10.9304943,12.2814583 12.1258794,13 13.437201,13 L14,13 L14,10.3610349 L13.437201,10.3610349 C13.0241066,10.3610349 12.6436544,10.1764014 12.2710815,9.79419835 C12.0313291,9.55194042 11.7161617,9.11799294 11.334584,8.50176401 C12.3127286,6.97295178 13.0139762,6.63896511 13.437201,6.63896511" id="Fill-1" sketch:type="MSShapeGroup"></path>
        </g>
    </g>
</svg>