<?xml version="1.0" encoding="UTF-8" standalone="no"?>
<svg width="17px" height="17px" viewBox="0 0 17 17" version="1.1" xmlns="http://www.w3.org/2000/svg" xmlns:xlink="http://www.w3.org/1999/xlink" xmlns:sketch="http://www.bohemiancoding.com/sketch/ns">
    <!-- Generator: Sketch 3.1.1 (8761) - http://www.bohemiancoding.com/sketch -->
    <title>Reload</title>
    <desc>Created with Sketch.</desc>
    <defs></defs>
    <g id="Page-1" stroke="none" stroke-width="1" fill="none" fill-rule="evenodd" sketch:type="MSPage">
        <g id="Reload" sketch:type="MSArtboardGroup" fill="#A5A7A7">
            <path d="M1.86515106,14.1348489 C3.33265922,15.8862894 5.53626909,17 8,17 C12.0796177,17 15.4460082,13.9463116 15.9381062,10 L15.9381062,10 L12.8999819,10 C12.4367116,12.2822403 10.4189579,14 8,14 C6.36427606,14 4.91200686,13.2145369 3.99979089,12.0002091 L6,10 L8.8817842e-16,10 L0,16 L1.86515106,14.1348489 Z M14.1348489,3.86515106 C12.6673408,2.11371058 10.4637309,1 8,1 C3.92038235,1 0.553991843,4.05368842 0.0618937549,8 L3.10001812,8 C3.56328845,5.71775968 5.58104209,4 8,4 C9.63572394,4 11.0879931,4.78546312 12.0002091,5.99979089 L10,8 L16,8 L16,2 L14.1348489,3.86515106 L14.1348489,3.86515106 Z" sketch:type="MSShapeGroup"></path>
        </g>
    </g>
</svg>