<?xml version="1.0" encoding="utf-8"?>
<!-- Generator: Adobe Illustrator 18.1.0, SVG Export Plug-In . SVG Version: 6.00 Build 0)  -->
<svg version="1.1" id="Layer_1" xmlns="http://www.w3.org/2000/svg" xmlns:xlink="http://www.w3.org/1999/xlink" x="0px" y="0px"
	 viewBox="0 0 17 12.8" enable-background="new 0 0 17 12.8" xml:space="preserve">
<g>
	<path fill="#A5A7A7" d="M4.2,6.4c0-2.3,1.9-4.2,4.2-4.2c0.8,0,1.5,0.2,2.2,0.6L12,1c-1-0.7-2.2-1-3.5-1C5,0,2.1,2.9,2.1,6.4H0
		l3.2,4.2l3.2-4.2H4.2z"/>
	<path fill="#A5A7A7" d="M13.8,2.1l-3.2,4.2h2.1c0,2.3-1.9,4.2-4.2,4.2c-0.8,0-1.5-0.2-2.2-0.6L5,11.7c1,0.7,2.2,1,3.5,1
		c3.5,0,6.4-2.9,6.4-6.4H17L13.8,2.1z"/>
</g>
<g>
</g>
<g>
</g>
<g>
</g>
<g>
</g>
<g>
</g>
<g>
</g>
<g>
</g>
<g>
</g>
<g>
</g>
<g>
</g>
<g>
</g>
<g>
</g>
<g>
</g>
<g>
</g>
<g>
</g>
</svg>
