<?xml version="1.0" encoding="UTF-8" standalone="no"?>
<svg width="17px" height="17px" viewBox="0 0 17 17" version="1.1" xmlns="http://www.w3.org/2000/svg" xmlns:xlink="http://www.w3.org/1999/xlink" xmlns:sketch="http://www.bohemiancoding.com/sketch/ns">
    <!-- Generator: Sketch 3.1.1 (8761) - http://www.bohemiancoding.com/sketch -->
    <title>Snap</title>
    <desc>Created with Sketch.</desc>
    <defs></defs>
    <g id="Page-1" stroke="none" stroke-width="1" fill="none" fill-rule="evenodd" sketch:type="MSPage">
        <g id="Snap" sketch:type="MSArtboardGroup" fill="#A5A7A7">
            <path d="M0.608,14.394 L0.954,17 L5.383,16.328 L5.047,13.803 L0.608,14.394" id="Fill-1" sketch:type="MSShapeGroup"></path>
            <path d="M0.344,12.412 L4.784,11.82 L4.493,9.636 C4.436,9.153 4.489,8.585 4.651,7.948 C4.934,6.838 5.604,5.912 6.539,5.341 C7.771,4.588 9.302,4.589 10.534,5.34 C11.469,5.912 12.139,6.838 12.422,7.949 C12.538,8.404 12.556,8.972 12.478,9.636 L12.221,11.821 L16.622,12.407 L16.916,10.233 C17.07,8.929 17.012,7.772 16.739,6.696 C16.142,4.352 14.728,2.396 12.753,1.19 C10.152,-0.397 6.921,-0.397 4.319,1.191 C2.345,2.397 0.93,4.352 0.335,6.695 C0.019,7.936 -0.075,9.126 0.06,10.271 L0.344,12.412" id="Fill-2" sketch:type="MSShapeGroup"></path>
            <path d="M11.987,13.807 L11.685,16.365 L16,17 L16.354,14.389 L11.987,13.807" id="Fill-3" sketch:type="MSShapeGroup"></path>
        </g>
    </g>
</svg>